# AST/ASF file generated using VICON BodyLanguage
# -----------------------------------------------
:version 1.10
:name VICON
:units
  mass 1.0
  length 0.45
  angle deg
:documentation
   .ast/.asf automatically generated from VICON data using
   VICON BodyBuilder and BodyLanguage model FoxedUp or BRILLIANT.MOD
:root
   order TX TY TZ RX RY RZ
   axis XYZ
   position 0 0 0  
   orientation 0 0 0 
:bonedata
  begin
     id 1 
     name lhipjoint
     direction 0.692814 -0.645514 0.321437 
     length 2.38754 
     axis 0 0 0  XYZ
  end
  begin
     id 2 
     name lfemur
     direction 0.34202 -0.939693 0  
     length 6.41921  
     axis 0 0 20  XYZ
    dof rx ry rz
    limits (-160.0 20.0)
           (-70.0 70.0)
           (-60.0 70.0)
  end
  begin
     id 3 
     name ltibia
     direction 0.34202 -0.939693 0   
     length 6.98247   
     axis 0 0 20   XYZ
    dof rx
    limits (-10.0 170.0)
  end
  begin
     id 4 
     name lfoot
     direction 0.0947186 -0.260237 0.960888   
     length 1.83034   
     axis -90 7.62852e-016 20   XYZ
    dof rx rz
    limits (-45.0 90.0)
           (-70.0 20.0)
  end
  begin
     id 5 
     name ltoes
     direction 1.53538e-011 -4.21952e-011 1   
     length 0.920499   
     axis -90 7.62852e-016 20   XYZ
    dof rx
    limits (-90.0 20.0)
  end
  begin
     id 6 
     name rhipjoint
     direction -0.631686 -0.693949 0.345555   
     length 2.2209  
     axis 0 0 0  XYZ 
  end
  begin
     id 7 
     name rfemur
     direction -0.34202 -0.939693 0   
     length 6.49542   
     axis 0 0 -20   XYZ
    dof rx ry rz
    limits (-160.0 20.0)
           (-70.0 70.0)
           (-70.0 60.0)
  end
  begin
     id 8 
     name rtibia
     direction -0.34202 -0.939693 0   
     length 7.21712   
     axis 0 0 -20   XYZ
    dof rx
    limits (-10.0 170.0)
 end
 begin
     id 9 
     name rfoot
     direction -0.0825378 -0.226771 0.970444   
     length 1.89724  
     axis -90 -7.62852e-016 -20   XYZ
    dof rx rz
    limits (-45.0 90.0)
           (-20.0 70.0)
  end
  begin
     id 10 
     name rtoes
     direction -1.53515e-011 -4.22016e-011 1   
     length 0.955868   
     axis -90 -7.62852e-016 -20   XYZ
    dof rx
    limits (-90.0 20.0)
  end
  begin
     id 11 
     name lowerback
     direction -0.0104711 0.984802 -0.173368   
     length 1.84931   
     axis 0 0 0   XYZ
    dof rx ry rz
    limits (-20.0 45.0)
           (-30.0 30.0)
           (-30.0 30.0)
  end
  begin
     id 12 
     name upperback
     direction -0.00286433 0.999996 -0.000382853   
     length 1.85768   
     axis 0 0 0   XYZ
    dof rx ry rz
    limits (-20.0 45.0)
           (-30.0 30.0)
           (-30.0 30.0)
  end
  begin
     id 13 
     name thorax
     direction 0.00167534 0.996793 0.0800069   
     length 1.92   
     axis 0 0 0   XYZ
    dof rx ry rz
    limits (-20.0 45.0)
           (-30.0 30.0)
           (-30.0 30.0)
  end
  begin
     id 14 
     name lowerneck
     direction -0.0672491 0.995415 0.068018   
     length 1.58923   
     axis 0 0 0   XYZ
    dof rx ry rz
    limits (-20.0 45.0)
           (-30.0 30.0)
           (-30.0 30.0)
  end
  begin
     id 15 
     name upperneck
     direction 0.0958019 0.982476 -0.159884   
     length 1.60189   
     axis 0 0 0   XYZ
    dof rx ry rz
    limits (-20.0 45.0)
           (-30.0 30.0)
           (-30.0 30.0)
  end
  begin
     id 16
     name head
     direction 0.032989 0.997338 -0.0650226  
     length 1.61681  
     axis 0 0 0   XYZ
    dof rx ry rz
    limits (-20.0 45.0)
           (-30.0 30.0)
           (-30.0 30.0)
  end
  begin
     id 17 
     name lclavicle
     direction 0.954279 0.298875 -0.00496069  
     length 2.99449  
     axis 0 0 0   XYZ
    dof ry rz
    limits (-20.0 10.0)
           (0.0 20.0)
  end
  begin
     id 18 
     name lhumerus
     direction 1 -4.48985e-011 -4.2057e-027   
     length 4.79185   
     axis 180 -30 -90   XYZ
    dof rx ry rz
    limits (-60.0 90.0)
           (-90.0 90.0)
           (-90.0 90.0)
  end
  begin
     id 19
     name lradius
     direction 1 -4.48945e-011 1.15441e-028   
     length 2.65553   
     axis 180 -30 -90   XYZ
    dof rx
    limits (-10.0 170.0)
  end
  begin
     id 20
     name lwrist
     direction 1 -4.4899e-011 4.8894e-028   
     length 1.32777   
     axis -2.56392e-016 90 90   XYZ
    dof ry
    limits (-180.0 0.0)
 end
  begin
     id 21 
     name lhand
     direction 1 -4.48908e-011 9.7788e-028   
     length 0.743904   
     axis -6.23971e-016 90 90   XYZ
    dof rx rz
    limits (-90.0 90.0)
           (-45.0 45.0)
  end
  begin
     id 22 
     name lfingers
     direction 1 -4.49068e-011 1.95576e-027   
     length 0.599754   
     axis -1.24794e-015 90 90   XYZ
    dof rx
    limits (0.0 90.0)
  end
  begin
     id 23
     name lthumb
     direction 0.707107 -6.34883e-011 0.707107   
     length 0.861131   
     axis -90 45 2.85299e-015   XYZ
    dof rx rz
    limits (-45.0 45.0)
           (-45.0 45.0)
  end
  begin
     id 24 
     name rclavicle
     direction -0.957921 0.286916 0.00811568   
     length 3.06817  
     axis 0 0 0   XYZ 
    dof ry rz
    limits (-10.0 20.0)
           (-20.0 0.0)
  end
  begin
     id 25 
     name rhumerus
     direction -1 -4.48971e-011 -3.07942e-027  
     length 4.77254   
     axis 180 30 90   XYZ
    dof rx ry rz
    limits (-90.0 60.0)
           (-90.0 90.0)
           (-90.0 90.0)
  end
  begin
     id 26 
     name rradius
     direction -1 -4.48957e-011 -9.6815e-028   
     length 2.75995   
     axis 180 30 90   XYZ
    dof rx
    limits (-10.0 170.0)
  end
  begin
     id 27 
     name rwrist
     direction -1 -4.48979e-011 4.8894e-028   
     length 1.37997   
     axis -2.56392e-016 -90 -90   XYZ
    dof ry
    limits (-180.0 0.0)
  end
  begin
     id 28
     name rhand
     direction -1 -4.48906e-011 9.7788e-028   
     length 0.701619   
     axis -6.23971e-016 -90 -90   XYZ
    dof rx rz
    limits (-90.0 90.0)
           (-45.0 45.0)
  end
  begin
     id 29
     name rfingers
     direction -1 -4.49018e-011 1.95576e-027   
     length 0.565663   
     axis -1.24794e-015 -90 -90   XYZ
    dof rx
    limits (0.0 90.0)
  end
  begin
     id 30
     name rthumb
     direction -0.707107 -6.34881e-011 0.707107   
     length 0.812183   
     axis -90 -45 -2.85299e-015   XYZ
    dof rx rz
    limits (-45.0 45.0)
           (-45.0 45.0)
  end
:hierarchy
  begin
    root lhipjoint rhipjoint lowerback
    lhipjoint lfemur
    lfemur ltibia
    ltibia lfoot
    lfoot ltoes
    rhipjoint rfemur
    rfemur rtibia
    rtibia rfoot
    rfoot rtoes
    lowerback upperback
    upperback thorax
    thorax lowerneck lclavicle rclavicle
    lowerneck upperneck
    upperneck head
    lclavicle lhumerus
    lhumerus lradius
    lradius lwrist
    lwrist lhand lthumb
    lhand lfingers
    rclavicle rhumerus
    rhumerus rradius
    rradius rwrist
    rwrist rhand rthumb
    rhand rfingers
  end

#!OML:ASF F:\VICON\USERDATA\INSTALL\rory3\rory3.ASF
:FULLY-SPECIFIED
:DEGREES
608
root 0.219349 16.1541 -0.0808024 -1.14387 -2.57204 -0.816987
lowerback 8.85243 -0.431185 -0.813657
upperback -0.878804 -0.653284 0.165283
thorax -5.87842 -0.292582 0.720476
lowerneck -18.7147 -7.01572 -10.103
upperneck 29.2217 -8.60775 5.3061
head 13.7405 -4.1969 2.29045
rclavicle -1.17562e-014 -3.08116e-015
rhumerus 40.86 32.9944 -37.7746
rradius 102.153
rwrist -64.7838
rhand -5.08966 11.347
rfingers 7.12502
rthumb 20.7073 -17.5682
lclavicle -1.17562e-014 -3.08116e-015
lhumerus 50.0413 -63.5693 11.9132
lradius 80.8714
lwrist 56.3293
lhand 6.97151 22.6259
lfingers 7.12502
lthumb 32.2486 49.7817
rfemur 0.396264 11.6742 18.025
rtibia 13.6002
rfoot -9.81535 -9.7172
rtoes -5.60141
lfemur 6.71139 -8.27929 -16.6994
ltibia 2.46539
lfoot -4.7794 9.74446
ltoes -10.1321
609
root 0.223828 16.1545 -0.0775149 -1.10079 -2.62663 -0.814588
lowerback 8.79143 -0.388435 -0.742499
upperback -0.905984 -0.591692 0.106021
thorax -5.87481 -0.265506 0.60967
lowerneck -18.5988 -7.04504 -10.0151
upperneck 29.1846 -8.70664 5.3499
head 13.7065 -4.22669 2.27763
rclavicle 1.72384e-016 1.98785e-015
rhumerus 40.6897 32.2213 -38.251
rradius 100.641
rwrist -64.515
rhand -5.44793 11.2842
rfingers 7.12502
rthumb 20.363 -17.6682
lclavicle 1.72384e-016 1.98785e-015
lhumerus 50.9365 -64.742 10.6299
lradius 82.4531
lwrist 56.5942
lhand 7.67584 22.6873
lfingers 7.12502
lthumb 32.9188 49.7047
rfemur 0.324198 11.6852 17.9879
rtibia 13.6595
rfoot -9.89959 -9.65112
rtoes -5.62152
lfemur 6.96153 -8.225 -16.6971
ltibia 1.94396
lfoot -4.57599 9.77703
ltoes -10.1992
610
root 0.226866 16.1548 -0.0761962 -1.0551 -2.64061 -0.74139
lowerback 8.72299 -0.332835 -0.75932
upperback -0.924555 -0.524075 0.0172384
thorax -5.85725 -0.233227 0.516725
lowerneck -18.4732 -7.10018 -9.92154
upperneck 29.145 -8.84802 5.40066
head 13.6735 -4.27359 2.25895
rclavicle 1.47442e-014 7.95139e-016
rhumerus 40.4958 31.4957 -38.6593
rradius 99.0471
rwrist -64.284
rhand -5.81985 11.2224
rfingers 7.12502
rthumb 20.0055 -17.7677
lclavicle 1.47442e-014 7.95139e-016
lhumerus 52.0158 -65.8159 9.22033
lradius 84.1319
lwrist 56.859
lhand 8.42697 22.8762
lfingers 7.12502
lthumb 33.6329 49.7407
rfemur 0.215215 11.7008 17.8819
rtibia 13.7607
rfoot -9.96479 -9.61295
rtoes -5.47058
lfemur 7.50584 -8.21102 -16.7449
ltibia 0.808932
lfoot -4.04258 9.88244
ltoes -10.0685
611
root 0.230563 16.155 -0.0747252 -1.04358 -2.73029 -0.631478
lowerback 8.71788 -0.290825 -0.859527
upperback -0.930027 -0.480693 -0.0156385
thorax -5.86024 -0.209164 0.532877
lowerneck -18.4476 -7.14544 -9.95815
upperneck 29.1498 -8.92588 5.46013
head 13.6834 -4.30408 2.27468
rclavicle 3.35449e-015 -2.38542e-015
rhumerus 40.4461 30.9881 -38.9797
rradius 97.3812
rwrist -64.0714
rhand -5.87251 11.2188
rfingers 7.12502
rthumb 19.9549 -17.7766
lclavicle 3.35449e-015 -2.38542e-015
lhumerus 52.8674 -66.8389 8.07794
lradius 85.8545
lwrist 57.1677
lhand 8.4911 22.8726
lfingers 7.12502
lthumb 33.6938 49.7238
rfemur 0.128859 11.6966 17.7299
rtibia 13.8585
rfoot -9.95415 -9.51638
rtoes -5.8384
lfemur 7.93211 -8.12103 -16.8559
ltibia -7.95139e-016
lfoot -3.67223 9.96864
ltoes -10.0857
612
root 0.233804 16.1548 -0.073699 -1.05843 -2.79999 -0.558895
lowerback 8.77993 -0.279391 -0.952194
upperback -0.931748 -0.475902 -0.0127409
thorax -5.89663 -0.203542 0.587863
lowerneck -18.5046 -7.17554 -10.0054
upperneck 29.1995 -8.96586 5.50109
head 13.726 -4.32 2.28995
rclavicle -3.56259e-015 1.98785e-015
rhumerus 40.4372 30.6158 -39.25
rradius 95.6746
rwrist -63.7257
rhand -5.55564 11.3308
rfingers 7.12502
rthumb 20.2595 -17.6326
lclavicle -3.56259e-015 1.98785e-015
lhumerus 53.3033 -67.7403 7.40704
lradius 87.5235
lwrist 57.3857
lhand 8.55022 22.8712
lfingers 7.12502
lthumb 33.75 49.7101
rfemur 0.0731921 11.6877 17.6316
rtibia 13.9597
rfoot -9.96032 -9.45237
rtoes -6.09186
lfemur 7.96048 -8.05188 -16.9519
ltibia 7.95139e-016
lfoot -3.66738 9.94621
ltoes -9.99972
613
root 0.236039 16.1548 -0.0725788 -1.03296 -2.83737 -0.557044
lowerback 8.77014 -0.278835 -0.972995
upperback -0.935757 -0.476684 -0.0019407
thorax -5.89504 -0.203064 0.610897
lowerneck -18.5441 -7.19196 -10.0799
upperneck 29.2542 -8.99752 5.59802
head 13.7712 -4.3283 2.33429
rclavicle 1.61513e-015 -3.77691e-015
rhumerus 40.59 30.3471 -39.3374
rradius 93.8479
rwrist -63.4944
rhand -5.51865 11.588
rfingers 7.12502
rthumb 20.295 -17.3717
lclavicle 1.61513e-015 -3.77691e-015
lhumerus 53.5821 -68.487 6.95518
lradius 89.1487
lwrist 57.6356
lhand 8.95102 22.9699
lfingers 7.12502
lthumb 34.1308 49.7246
rfemur 0.00529357 11.731 17.6109
rtibia 14.022
rfoot -9.9842 -9.45553
rtoes -6.15045
lfemur 7.94425 -8.01567 -16.9566
ltibia 1.11319e-014
lfoot -3.64838 9.92029
ltoes -9.79775
614
root 0.236931 16.1557 -0.071989 -0.980808 -2.8515 -0.518684
lowerback 8.72454 -0.265623 -1.01433
upperback -0.950946 -0.464509 -0.0263725
thorax -5.88526 -0.196155 0.606713
lowerneck -18.5265 -7.21155 -10.1049
upperneck 29.2797 -9.04392 5.66298
head 13.7884 -4.34301 2.35628
rclavicle 5.15598e-015 -5.96354e-016
rhumerus 40.6709 30.1654 -39.3038
rradius 91.9824
rwrist -63.4335
rhand -5.64526 11.6204
rfingers 7.12502
rthumb 20.1733 -17.3522
lclavicle 5.15598e-015 -5.96354e-016
lhumerus 53.9658 -69.1318 6.46376
lradius 90.7235
lwrist 57.8788
lhand 9.25949 22.8558
lfingers 7.12502
lthumb 34.4237 49.5445
rfemur -0.0509264 11.7859 17.5592
rtibia 14.014
rfoot -9.93554 -9.49559
rtoes -6.31023
lfemur 7.89333 -8.00048 -16.9949
ltibia -7.15625e-015
lfoot -3.65059 9.94998
ltoes -9.73054
615
root 0.238618 16.1562 -0.0712662 -0.968155 -2.79609 -0.589986
lowerback 8.69345 -0.276981 -0.925761
upperback -0.935637 -0.469696 -0.0259749
thorax -5.85205 -0.201818 0.557708
lowerneck -18.5493 -7.24066 -10.124
upperneck 29.3186 -9.09789 5.71364
head 13.8196 -4.3612 2.36912
rclavicle -2.44754e-015 -2.78299e-015
rhumerus 40.4723 30.065 -39.3142
rradius 90.3581
rwrist -63.3988
rhand -5.62197 11.4374
rfingers 7.12502
rthumb 20.1957 -17.5327
lclavicle -2.44754e-015 -2.78299e-015
lhumerus 54.1456 -69.639 6.2238
lradius 92.259
lwrist 58.1838
lhand 9.65757 22.6135
lfingers 7.12502
lthumb 34.8015 49.2157
rfemur -0.0103676 11.7576 17.6391
rtibia 13.9622
rfoot -9.9264 -9.55317
rtoes -5.85373
lfemur 7.87668 -8.05988 -16.92
ltibia -4.6118e-014
lfoot -3.6698 9.96393
ltoes -9.8152
